<?xml version="1.0" encoding="UTF-8" standalone="no"?>
<!-- Created with Inkscape (http://www.inkscape.org/) -->

<svg
   width="800mm"
   height="500mm"
   viewBox=" -200 20 800 500"
   version="1.1"
   id="svg1"
   xmlns="http://www.w3.org/2000/svg"
   xmlns:svg="http://www.w3.org/2000/svg">
  <defs
     id="defs1" />
  <g
     id="layer1"
     transform="translate(0.0095456,-22.330434)">
    <path
       style="fill:none;fill-opacity:0.894118;stroke:#266d33;stroke-width:1.965;stroke-opacity:1"
       d="m 231.72699,34.536434 c 13.40561,6.264879 -83.00076,-2.346101 -67.28623,52.816079 3.02642,10.623526 3.71511,22.842947 2.6735,34.725187 -1.9406,22.13754 -6.7743,59.23173 -32.69909,73.43923 -23.45249,12.85261 12.54747,72.93022 -20.61997,77.77711 -32.417673,4.73732 -92.609012,32.91961 -92.609012,32.91961"
       id="path1-13" />
    <path
       style="fill:none;fill-opacity:0.894118;stroke:#266d33;stroke-width:1.965;stroke-opacity:1"
       d="m 223.34239,31.661212 c 13.84811,6.098941 -76.60311,-4.745221 -67.28623,52.816079 1.76497,10.904283 2.84655,22.798639 2.6735,34.725189 -0.43075,29.68679 -7.91146,58.12605 -32.69909,73.43923 -21.51229,13.28976 12.54747,72.93022 -20.61997,77.77711 -32.417666,4.73733 -92.60901,32.91961 -92.60901,32.91961"
       id="path1-13-0" />
    <path
       style="fill:none;fill-opacity:0.894118;stroke:#266d33;stroke-width:1.965;stroke-opacity:1"
       d="m 217.16907,27.396247 c 13.84811,6.098941 -76.60311,-4.745221 -67.28623,52.816079 1.76497,10.904283 2.84655,22.798644 2.6735,34.725194 -0.43075,29.68679 -7.91146,58.12605 -32.69909,73.43923 -21.512294,13.28976 12.54747,72.93022 -20.619974,77.77711 -32.417673,4.73733 -92.6090128,32.91961 -92.6090128,32.91961"
       id="path1-13-2" />
    <path
       style="fill:none;fill-opacity:0.894118;stroke:#266d33;stroke-width:1.965;stroke-opacity:1"
       d="m 210.94787,23.229593 c 13.84811,6.098941 -76.60311,-4.745221 -67.28623,52.816079 1.76497,10.904283 2.84655,22.798637 2.6735,34.725188 -0.43075,29.68679 -7.91146,58.12605 -32.69909,73.43923 -21.512292,13.28976 12.54747,72.93022 -20.619972,77.77711 -32.41767,4.73733 -92.60901016,32.91961 -92.60901016,32.91961"
       id="path1-13-8" />
  </g>
</svg>
